<?xml version="1.0" encoding="UTF-8"?>
<svg xmlns="http://www.w3.org/2000/svg" xmlns:xlink="http://www.w3.org/1999/xlink" width="30px" height="30px" viewBox="0 0 30 30" version="1.1">
<g id="surface1">
<path style=" stroke:none;fill-rule:nonzero;fill:rgb(0%,0%,0%);fill-opacity:1;" d="M 14.0625 1.875 C 7.34375 1.875 1.875 7.34375 1.875 14.0625 C 1.875 20.78125 7.34375 26.25 14.0625 26.25 C 20.78125 26.25 26.25 20.78125 26.25 14.0625 C 26.25 7.34375 20.78125 1.875 14.0625 1.875 Z M 14.0625 3.75 C 19.769531 3.75 24.375 8.355469 24.375 14.0625 C 24.375 19.25 20.5625 23.515625 15.585938 24.25 L 15.585938 17.042969 L 18.496094 17.042969 L 18.953125 14.089844 L 15.585938 14.089844 L 15.585938 12.46875 C 15.585938 11.242188 15.984375 10.152344 17.136719 10.152344 L 18.980469 10.152344 L 18.980469 7.570312 C 18.65625 7.527344 17.972656 7.429688 16.671875 7.429688 C 13.964844 7.429688 12.378906 8.859375 12.378906 12.117188 L 12.378906 14.085938 L 9.59375 14.085938 L 9.59375 17.042969 L 12.382812 17.042969 L 12.382812 24.226562 C 7.480469 23.421875 3.75 19.195312 3.75 14.0625 C 3.75 8.355469 8.355469 3.75 14.0625 3.75 Z M 14.0625 3.75 "/>
</g>
</svg>
