<?xml version="1.0" standalone="no"?>
<!DOCTYPE svg PUBLIC "-//W3C//DTD SVG 20010904//EN"
 "http://www.w3.org/TR/2001/REC-SVG-20010904/DTD/svg10.dtd">
<svg version="1.0" xmlns="http://www.w3.org/2000/svg"
 width="637.000000pt" height="392.000000pt" viewBox="0 0 637.000000 392.000000"
 preserveAspectRatio="xMidYMid meet">

<g transform="translate(0.000000,392.000000) scale(0.100000,-0.100000)"
fill="#000000" stroke="none">
<path d="M0 1960 l0 -1960 551 0 550 0 -24 33 c-27 36 -56 95 -98 206 l-28 75
15 90 c42 250 112 519 182 691 43 107 136 292 166 330 17 22 94 103 171 181
143 144 223 204 425 319 110 63 121 73 259 244 64 79 142 176 174 215 58 70
113 154 106 160 -2 1 -29 21 -59 43 -30 22 -68 55 -85 73 -37 41 -313 264
-359 291 -41 24 -66 79 -73 161 -7 71 13 180 39 213 21 27 122 87 190 113 24
9 62 33 85 54 24 21 47 38 52 38 38 0 81 -45 81 -85 0 -22 -13 -24 245 38 143
34 216 47 256 46 28 -2 25 -3 -16 -9 -164 -24 -450 -101 -478 -129 -18 -18 2
-25 36 -13 49 18 98 15 135 -8 26 -16 32 -26 32 -54 0 -19 -4 -45 -9 -58 -6
-16 -4 -27 5 -36 12 -11 14 -6 14 30 0 42 13 44 23 3 5 -19 5 -19 12 3 4 12
12 22 17 22 5 0 6 -4 3 -10 -10 -17 -1 -12 124 55 67 36 125 65 129 65 5 0 17
10 28 21 44 49 212 159 243 159 11 0 52 37 97 87 51 56 94 93 121 105 40 17
63 38 28 24 -8 -3 -21 1 -27 8 -15 16 -38 2 -131 -81 -73 -65 -91 -68 -42 -8
21 25 41 42 46 39 5 -3 8 -1 7 6 -2 6 17 21 41 33 51 26 54 41 9 45 -31 3 -44
-8 -186 -152 l-152 -156 -37 8 -38 8 40 8 c47 9 85 31 85 49 0 19 60 110 67
103 4 -3 -4 -17 -17 -31 -13 -14 -21 -27 -18 -30 10 -10 49 48 43 65 -7 23 58
82 134 120 53 26 71 31 100 25 20 -4 90 -8 156 -10 154 -2 229 -30 310 -112
47 -49 57 -54 106 -59 106 -10 125 -19 169 -85 57 -82 70 -127 70 -228 0 -84
-2 -90 -46 -176 -63 -123 -128 -199 -177 -209 -7 -2 -25 -8 -40 -14 -25 -11
-85 -7 -74 4 9 9 111 32 122 27 16 -6 108 96 129 144 10 21 28 59 42 84 20 39
24 61 23 125 -1 99 -20 154 -81 232 -43 56 -50 60 -97 67 -54 7 -93 2 -158
-22 -26 -9 -57 -13 -78 -10 -35 6 -43 0 -26 -19 5 -5 11 -24 13 -42 l3 -34 35
24 c19 13 36 34 38 46 2 12 7 22 12 22 25 0 40 -79 20 -110 -6 -10 -5 -20 4
-30 8 -8 24 -38 36 -67 13 -31 36 -63 56 -78 42 -32 44 -47 4 -32 -23 9 -33 8
-42 -1 -9 -9 -8 -12 5 -12 9 0 17 -4 17 -10 0 -5 -4 -10 -9 -10 -7 0 -31 -94
-31 -123 0 -5 13 7 30 28 17 21 30 44 30 51 0 7 4 16 10 19 7 4 7 -3 0 -19 -6
-17 -6 -26 0 -26 6 0 13 14 17 30 3 17 9 30 13 30 4 0 2 -18 -4 -41 -7 -22
-15 -39 -18 -37 -11 5 -78 -65 -78 -81 1 -10 14 -1 35 24 19 22 35 35 35 29 0
-6 -11 -21 -25 -34 -29 -27 -33 -52 -7 -44 14 5 14 3 -3 -11 -17 -14 -21 -14
-31 -1 -9 13 -14 11 -31 -12 -16 -22 -43 -84 -43 -98 0 -2 23 -4 50 -4 61 0
109 19 166 65 47 38 83 44 107 18 14 -16 13 -26 -10 -113 -16 -62 -26 -125
-27 -180 l-1 -84 68 -42 c38 -22 73 -47 77 -55 5 -7 14 -45 20 -84 17 -98 76
-347 94 -389 8 -19 33 -62 55 -95 23 -33 41 -68 41 -78 0 -10 7 -50 15 -88 8
-39 15 -92 15 -118 0 -52 40 -143 92 -209 36 -46 141 -101 179 -93 41 9 52
-12 37 -76 -6 -30 -19 -63 -29 -74 -9 -11 -27 -42 -39 -68 l-22 -48 29 -97
c17 -53 38 -124 48 -157 23 -78 41 -113 109 -210 86 -124 98 -151 91 -196 -7
-38 -87 -149 -109 -149 -5 0 -2 8 7 18 25 27 21 38 -6 16 l-22 -19 19 22 c10
13 24 20 30 16 6 -3 8 -2 3 2 -4 5 0 19 8 32 9 13 11 23 6 23 -9 0 -53 -54
-81 -99 -10 -16 -32 -28 -65 -37 -76 -20 -81 -18 -117 35 -27 42 -35 48 -51
40 -30 -16 -42 -5 -55 51 -19 80 -15 97 36 184 72 122 75 130 68 173 -11 60
-125 263 -147 263 -7 0 -30 -5 -52 -12 -32 -10 -41 -10 -45 0 -6 20 -22 3 -22
-25 0 -26 -85 -366 -95 -384 -4 -5 3 -21 14 -35 12 -15 21 -32 21 -39 0 -7 17
-15 38 -19 47 -7 70 -43 49 -78 -10 -17 -9 -22 1 -25 8 -3 36 -40 64 -82 46
-70 49 -80 45 -124 -3 -35 -1 -47 9 -47 25 0 47 -48 41 -87 -7 -42 13 -73 46
-73 16 0 17 3 7 15 -6 8 -9 19 -6 24 4 5 2 12 -3 15 -5 4 -12 24 -16 46 -4 22
-11 42 -16 46 -5 3 -7 9 -4 14 3 4 -1 13 -9 19 -8 7 -12 21 -9 31 3 11 -2 31
-11 45 -9 13 -16 30 -16 36 0 7 -8 21 -17 32 -10 11 -12 17 -5 13 18 -10 15 4
-5 27 -10 11 -12 17 -5 13 17 -10 15 9 -2 24 -8 6 -13 17 -10 24 3 7 -2 19
-10 26 -9 7 -13 17 -10 22 3 5 -2 19 -13 30 -12 14 -13 19 -3 13 11 -6 10 -3
-3 12 -9 11 -14 23 -10 26 3 4 -1 15 -10 25 -10 10 -14 22 -10 25 3 4 -1 15
-10 25 -10 10 -14 22 -10 25 3 4 -2 14 -13 22 -10 8 -14 15 -7 15 7 0 5 14 -8
40 -20 41 -26 71 -10 54 26 -27 225 -550 282 -741 l12 -43 899 0 898 0 0 1960
0 1960 -3185 0 -3185 0 0 -1960z m3080 1646 c0 -3 -4 -8 -10 -11 -5 -3 -10 -1
-10 4 0 6 5 11 10 11 6 0 10 -2 10 -4z m845 -71 c24 -14 46 -32 49 -40 8 -23
-8 -18 -33 9 -26 27 -71 42 -80 27 -4 -6 -12 -7 -21 0 -13 8 -13 10 0 19 23
15 38 12 85 -15z m65 -15 c0 -5 -2 -10 -4 -10 -3 0 -8 5 -11 10 -3 6 -1 10 4
10 6 0 11 -4 11 -10z m-156 -25 c11 -8 15 -15 9 -15 -19 0 -43 12 -43 21 0 13
12 11 34 -6z m98 -2 c11 -10 17 -28 17 -47 -2 -27 -2 -28 -6 -6 -3 14 -17 35
-31 47 -17 14 -22 22 -13 23 8 0 23 -7 33 -17z m-24 -25 c15 -15 16 -58 2 -58
-5 0 -10 10 -10 23 0 13 -5 28 -12 35 -7 7 -8 12 -2 12 6 0 15 -5 22 -12z
m-85 -25 c21 -41 29 -83 17 -83 -5 0 -10 11 -10 24 0 13 -7 29 -15 36 -14 11
-22 50 -10 50 2 0 11 -12 18 -27z m52 -25 c5 -25 4 -38 -4 -38 -6 0 -11 10
-11 23 0 12 -3 33 -6 47 -5 17 -3 22 4 15 6 -5 14 -27 17 -47z m165 -111 c-1
-12 -7 -33 -15 -47 -8 -14 -14 -32 -14 -40 0 -9 6 -4 14 10 22 38 18 15 -5
-30 -11 -22 -25 -40 -30 -40 -13 0 -13 6 10 74 11 33 20 70 20 83 0 14 4 21
10 18 6 -3 10 -16 10 -28z m-59 -20 c-8 -8 -11 -3 -11 19 1 25 2 27 11 11 8
-14 8 -22 0 -30z m-64 -19 c-3 -8 -6 -5 -6 6 -1 11 2 17 5 13 3 -3 4 -12 1
-19z m24 -55 c-10 -27 -22 -56 -26 -66 -6 -14 -4 -16 10 -11 16 7 16 5 -1 -22
-10 -16 -29 -41 -43 -56 -13 -15 -22 -31 -18 -34 8 -9 55 44 77 87 10 20 26
36 34 36 21 0 20 -4 -7 -51 -31 -55 -103 -103 -163 -110 -27 -3 -40 -2 -29 2
35 12 86 56 81 69 -3 7 11 38 30 70 19 32 39 75 45 95 5 21 14 38 19 38 6 0 2
-21 -9 -47z m49 44 c0 -14 -33 -97 -37 -93 -8 7 20 96 29 96 4 0 8 -1 8 -3z
m-150 -62 c-6 -15 -13 -25 -16 -23 -2 3 1 17 7 32 16 34 23 27 9 -9z"/>
<path d="M3886 3105 c-9 -14 -12 -25 -7 -25 12 0 35 39 28 46 -2 3 -12 -7 -21
-21z"/>
<path d="M3951 3109 c-7 -12 -10 -23 -8 -26 3 -3 11 5 17 17 6 12 10 23 8 25
-2 2 -10 -5 -17 -16z"/>
<path d="M3405 3812 c-5 -4 -10 -16 -10 -26 0 -14 -10 -22 -35 -29 -19 -5 -42
-15 -51 -23 -15 -13 -15 -18 3 -54 22 -44 49 -55 41 -17 -4 20 -3 21 10 5 8
-10 24 -18 35 -18 19 0 20 3 12 25 -6 16 -6 25 0 25 6 0 15 -11 20 -25 5 -14
14 -25 20 -25 13 0 13 6 0 31 -7 13 -7 19 -1 19 6 0 13 -11 17 -25 3 -14 12
-25 20 -25 17 0 18 12 2 28 -7 7 -8 12 -4 12 5 0 14 -7 20 -15 6 -8 25 -17 42
-21 30 -6 31 -5 27 22 -3 26 -2 27 9 11 36 -52 39 -54 33 -19 -8 40 3 42 16 2
6 -16 20 -32 31 -36 21 -6 105 13 113 26 3 5 -20 33 -50 63 -46 45 -66 57
-127 76 -72 21 -173 28 -193 13z m90 -72 c3 -5 -1 -10 -9 -10 -9 0 -16 5 -16
10 0 6 4 10 9 10 6 0 13 -4 16 -10z m-135 -26 c0 -8 -4 -12 -10 -9 -5 3 -10
10 -10 16 0 5 5 9 10 9 6 0 10 -7 10 -16z m30 -4 c0 -5 -2 -10 -4 -10 -3 0 -8
5 -11 10 -3 6 -1 10 4 10 6 0 11 -4 11 -10z m275 -30 c3 -5 1 -10 -4 -10 -6 0
-11 5 -11 10 0 6 2 10 4 10 3 0 8 -4 11 -10z"/>
<path d="M3144 3781 c-32 -19 -83 -81 -67 -81 5 0 31 23 58 50 54 55 55 59 9
31z"/>
<path d="M3251 3676 c-16 -17 -21 -31 -16 -46 8 -26 30 -21 30 8 1 30 12 37
20 13 8 -25 25 -28 25 -3 -1 16 -22 52 -32 52 -2 0 -15 -11 -27 -24z"/>
<path d="M3187 3604 l-18 -24 26 12 c25 11 32 23 18 31 -5 3 -16 -6 -26 -19z"/>
<path d="M3365 3620 c-11 -5 -32 -9 -48 -9 -15 -1 -50 -12 -78 -26 -29 -13
-55 -22 -60 -19 -5 2 -26 -4 -49 -15 -22 -10 -40 -15 -40 -10 0 10 -91 -45
-142 -85 -15 -12 -27 -28 -27 -37 -1 -10 -9 -16 -18 -15 -13 1 -17 -5 -15 -22
2 -19 -1 -22 -19 -17 -16 5 -20 3 -18 -12 2 -10 -14 -35 -35 -57 -37 -38 -38
-40 -32 -100 3 -34 7 -81 8 -106 3 -50 30 -100 53 -100 11 0 13 8 8 32 -7 37
14 58 60 58 34 0 59 -12 114 -56 37 -30 73 -44 73 -28 0 3 -9 17 -20 31 -11
14 -20 34 -20 45 0 34 -18 57 -40 51 -17 -4 -20 -1 -19 23 1 24 2 25 6 6 l4
-22 32 22 31 23 -43 7 c-24 4 -48 5 -52 2 -14 -8 -11 -52 4 -57 6 -2 9 -8 5
-12 -15 -16 -28 8 -28 51 0 43 25 112 37 101 3 -3 -2 -16 -11 -29 -22 -30 -20
-45 2 -25 10 10 21 15 24 12 3 -3 20 2 39 12 35 20 77 69 66 79 -3 3 -15 -8
-25 -26 l-20 -32 2 29 c2 38 11 49 43 56 16 3 37 13 48 22 19 16 18 16 -17 11
-21 -2 -38 -3 -38 -1 0 5 66 45 73 45 4 0 4 -7 1 -15 -9 -23 2 -18 43 19 21
18 55 39 76 47 43 15 47 26 12 35 -51 13 -10 19 126 19 126 0 140 2 159 20
l20 21 -27 26 c-25 22 -39 26 -118 31 -49 3 -99 2 -110 -3z m99 -32 c61 -21
105 -48 56 -33 -14 4 -37 9 -52 12 -16 3 -28 9 -28 14 0 5 -15 13 -32 18 -18
5 -27 10 -19 10 8 1 41 -9 75 -21z m-109 2 c-11 -5 -31 -9 -45 -9 -23 0 -23 1
-5 9 11 5 31 9 45 9 23 0 23 -1 5 -9z m75 -29 c0 -12 -26 -21 -53 -20 -17 1
-16 3 8 10 21 6 10 7 -38 4 -42 -3 -65 -1 -62 5 8 12 145 13 145 1z m-175 -10
c3 -6 -14 -19 -38 -29 -25 -11 -48 -25 -51 -31 -4 -6 -17 -11 -29 -11 -16 1
-10 7 25 25 26 14 50 30 54 36 4 7 -15 0 -42 -14 -27 -14 -79 -40 -116 -58
-37 -17 -65 -35 -62 -40 3 -5 -2 -9 -10 -9 -40 0 -7 25 107 79 122 60 151 69
162 52z m4 -35 c-10 -9 -69 -36 -69 -32 0 7 52 35 64 36 5 0 7 -2 5 -4z m16
-26 c4 -6 -6 -10 -22 -9 -25 0 -26 1 -8 9 11 5 21 9 22 9 1 1 5 -3 8 -9z
m-175 -30 c0 -5 -6 -10 -13 -10 -7 0 -28 -13 -47 -30 -19 -16 -41 -29 -49 -30
-14 0 87 79 102 80 4 0 7 -4 7 -10z m100 0 c-20 -13 -33 -13 -25 0 3 6 14 10
23 10 15 0 15 -2 2 -10z m-80 -20 c0 -5 -6 -10 -14 -10 -7 0 -25 -9 -40 -21
-14 -11 -26 -16 -26 -11 0 10 58 52 73 52 4 0 7 -4 7 -10z m35 -8 c-6 -5 -30
-23 -55 -41 l-45 -33 44 41 c24 23 48 41 54 41 7 0 7 -3 2 -8z m-95 -116 c0
-3 -4 -8 -10 -11 -5 -3 -10 -1 -10 4 0 6 5 11 10 11 6 0 10 -2 10 -4z m-190
-26 c0 -5 -4 -10 -9 -10 -13 0 -34 -57 -27 -75 3 -8 1 -15 -5 -15 -21 0 -20
31 2 70 22 38 39 52 39 30z m26 -22 c-9 -12 -16 -35 -16 -50 0 -16 -4 -28 -10
-28 -21 0 -1 84 25 102 17 12 18 0 1 -24z m30 -3 c-9 -13 -16 -34 -16 -45 0
-12 -4 -18 -10 -15 -5 3 -10 9 -10 13 0 11 39 72 46 72 3 0 -1 -11 -10 -25z
m23 -24 c-6 -18 -9 -35 -5 -38 3 -4 -1 -14 -10 -24 -12 -14 -13 -22 -4 -39 13
-23 8 -36 -9 -25 -17 10 -13 49 10 110 22 59 38 73 18 16z m81 5 c0 -3 -4 -8
-10 -11 -5 -3 -10 -1 -10 4 0 6 5 11 10 11 6 0 10 -2 10 -4z m-168 -136 c4 0
8 17 9 38 l0 37 15 -39 c16 -45 17 -42 -17 -51 -24 -6 -28 -3 -39 29 -6 20 -8
41 -3 48 5 9 11 1 17 -24 5 -21 13 -38 18 -38z m178 -31 c0 -6 -4 -7 -10 -4
-5 3 -10 11 -10 16 0 6 5 7 10 4 6 -3 10 -11 10 -16z m-30 1 c0 -5 -7 -10 -16
-10 -8 0 -12 5 -9 10 3 6 10 10 16 10 5 0 9 -4 9 -10z"/>
<path d="M3474 3461 c-16 -10 -40 -30 -52 -44 -23 -24 -23 -26 -7 -51 10 -14
20 -26 24 -26 10 0 80 129 72 134 -4 3 -21 -3 -37 -13z"/>
<path d="M3647 3453 c-4 -3 -7 -18 -7 -32 -1 -14 -7 -37 -15 -51 -17 -30 -19
-50 -5 -50 10 0 20 20 34 63 3 10 10 15 16 12 13 -8 -25 -84 -46 -92 -32 -12
-39 15 -16 62 29 60 29 78 0 70 -31 -9 -89 -49 -122 -84 l-28 -29 27 -18 c20
-13 25 -24 23 -48 -2 -23 -8 -31 -23 -31 -11 0 -20 7 -20 15 0 8 8 14 18 14
25 -2 21 13 -8 32 -36 23 -71 11 -94 -34 -11 -20 -20 -32 -21 -25 0 24 22 60
47 75 l26 16 -31 16 c-17 9 -33 16 -35 16 -2 0 -16 -27 -32 -60 -31 -64 -40
-72 -48 -40 -8 30 -19 24 -50 -25 -24 -41 -27 -55 -27 -140 0 -136 21 -176
147 -277 36 -29 140 -45 212 -33 67 11 123 84 166 215 14 42 19 89 19 200 l1
145 -34 63 c-31 57 -55 75 -74 55z m60 -143 c-41 -18 -61 -34 -37 -29 56 11
105 -48 64 -78 -21 -16 -39 -12 -39 8 0 9 9 13 23 12 19 -3 21 0 12 16 -27 52
-78 30 -112 -48 -10 -24 -21 -41 -24 -38 -3 3 -1 13 4 23 6 11 7 27 1 40 -6
17 -3 29 9 44 21 26 114 78 127 71 5 -3 -7 -12 -28 -21z m-229 -127 c-11 -14
-65 -17 -92 -7 -31 12 -15 19 43 19 46 0 57 -3 49 -12z m227 -4 l30 -1 -30
-13 c-16 -7 -31 -9 -33 -4 -2 5 -10 9 -17 9 -8 0 -17 5 -21 12 -5 8 0 9 17 5
13 -4 38 -7 54 -8z m-445 -18 c5 -11 10 -36 10 -55 0 -43 -21 -126 -32 -126
-12 0 -10 13 7 53 8 20 15 55 15 77 0 27 -5 43 -15 46 -17 7 -21 24 -5 24 5 0
14 -9 20 -19z m478 -26 c3 -3 0 -5 -6 -5 -7 0 -12 -10 -12 -22 0 -21 0 -21
-15 -2 -12 15 -16 16 -23 6 -7 -11 -15 -8 -38 13 l-28 26 58 -5 c33 -3 61 -8
64 -11z m-414 -45 c-10 -23 -18 -71 -18 -105 -1 -35 -4 -61 -8 -58 -16 9 -7
104 13 158 12 31 23 54 25 52 3 -3 -3 -24 -12 -47z m276 10 c22 -11 45 -30 51
-42 26 -49 -24 -222 -70 -240 -14 -5 -62 -8 -106 -6 -96 5 -131 24 -141 75
-16 87 18 170 90 214 42 26 124 25 176 -1z"/>
<path d="M3625 3260 c-27 -30 -12 -34 15 -5 13 14 19 25 13 25 -5 0 -18 -9
-28 -20z"/>
<path d="M3405 3069 c-46 -41 -44 -50 8 -32 49 17 153 11 198 -12 15 -8 30
-15 33 -15 5 0 -1 41 -6 44 -2 1 -16 12 -32 24 -23 18 -42 22 -97 22 -62 0
-71 -3 -104 -31z"/>
<path d="M3438 2959 c-10 -5 -18 -7 -18 -3 0 4 -12 -3 -27 -17 -22 -20 -25
-21 -19 -5 5 16 4 17 -9 6 -8 -7 -15 -23 -15 -35 0 -22 1 -23 108 -17 73 3
116 1 130 -7 27 -14 28 -2 3 31 -15 18 -29 24 -55 23 -19 0 -32 3 -30 7 7 11
-4 10 -27 -2 -18 -10 -24 -4 -20 23 1 9 0 9 -21 -4z m12 -13 c0 -2 -8 -10 -17
-17 -16 -13 -17 -12 -4 4 13 16 21 21 21 13z"/>
<path d="M3425 2874 c-93 -14 -39 -43 82 -44 81 0 107 10 84 33 -12 12 -114
18 -166 11z"/>
<path d="M3390 3355 c7 -9 15 -13 17 -11 7 7 -7 26 -19 26 -6 0 -6 -6 2 -15z"/>
<path d="M2720 3314 c-82 -45 -144 -85 -165 -108 -5 -6 -22 -16 -36 -23 -25
-11 -26 -15 -24 -70 2 -70 14 -94 80 -164 52 -55 90 -70 175 -69 19 0 58 -6
85 -15 28 -8 53 -15 56 -15 4 0 -1 29 -9 64 -15 61 -16 64 -45 62 -46 -2 -64
38 -72 159 l-7 100 36 54 c59 87 49 91 -74 25z"/>
<path d="M2140 3337 c20 -7 44 -27 58 -47 22 -32 24 -42 20 -133 -3 -54 -1
-100 4 -103 14 -9 47 6 59 27 7 14 7 29 -2 53 -10 28 -10 41 2 73 18 47 40 49
55 4 11 -33 12 -34 23 -14 17 32 14 56 -5 49 -10 -4 -25 1 -35 10 -17 15 -19
14 -39 -17 -15 -25 -20 -47 -18 -82 2 -26 0 -47 -4 -47 -15 0 -22 27 -24 86
-1 36 -10 80 -22 108 -20 45 -22 46 -64 45 l-43 0 35 -12z"/>
<path d="M3086 3158 c-38 -54 -13 -116 67 -169 55 -36 59 -38 53 -17 -3 13 -6
31 -6 41 0 10 -8 17 -20 17 -13 0 -22 9 -26 25 -7 30 -24 33 -24 5 0 -12 12
-26 30 -35 17 -9 30 -20 30 -26 0 -18 -61 21 -72 47 -9 19 -9 30 0 45 14 23
16 49 2 49 -5 0 -14 -15 -19 -32 -9 -31 -9 -32 -10 -6 -1 35 8 58 25 58 14 0
41 -51 46 -89 2 -14 9 -26 16 -29 19 -6 14 38 -11 88 -26 53 -56 64 -81 28z"/>
<path d="M3774 3094 c-4 -10 -9 -22 -11 -26 -2 -5 0 -8 6 -8 11 0 26 39 17 47
-3 3 -9 -3 -12 -13z"/>
<path d="M2912 3044 c40 -86 98 -194 98 -181 0 22 -76 173 -91 183 -6 4 -10 3
-7 -2z"/>
<path d="M2407 3020 c-3 -11 -2 -20 3 -20 12 0 21 28 11 35 -5 2 -11 -4 -14
-15z"/>
<path d="M2433 2942 l-22 -47 24 28 c14 15 25 37 25 48 0 27 -2 24 -27 -29z"/>
<path d="M3120 2959 c0 -5 8 -9 18 -9 10 0 24 -6 32 -12 12 -11 12 -10 2 3
-14 19 -52 32 -52 18z"/>
<path d="M3718 2893 c7 -3 16 -2 19 1 4 3 -2 6 -13 5 -11 0 -14 -3 -6 -6z"/>
<path d="M3230 2817 c0 -87 -21 -147 -52 -147 -11 0 -16 5 -12 11 4 7 -1 10
-12 7 -29 -5 -54 -58 -46 -96 4 -18 9 -32 12 -30 3 2 19 -6 35 -16 l29 -19 23
29 c40 49 75 132 77 179 1 28 4 40 11 34 16 -16 -21 -134 -60 -191 -19 -29
-35 -56 -35 -60 0 -4 18 -17 39 -29 22 -12 49 -35 60 -50 27 -36 13 -38 -19
-4 -20 22 -115 83 -145 94 -5 2 4 -10 22 -27 29 -27 31 -32 23 -68 -5 -22 -19
-47 -30 -56 l-22 -18 43 -50 c27 -33 54 -53 72 -57 16 -3 31 -12 34 -19 6 -17
41 -1 63 30 13 19 40 50 93 107 9 10 23 19 30 19 6 0 4 -5 -6 -11 -20 -12 -56
-83 -57 -111 0 -10 5 -18 12 -18 6 0 20 8 31 18 19 16 19 16 13 -5 -4 -12 -2
-24 4 -28 6 -4 9 -13 6 -21 -9 -23 13 -16 54 16 41 33 66 39 56 15 -5 -14 -2
-14 24 0 44 23 80 66 80 97 0 19 10 35 34 53 35 26 56 69 56 111 0 20 -3 21
-27 14 -16 -5 -57 -17 -93 -27 -35 -9 -86 -33 -113 -51 -27 -18 -51 -32 -53
-30 -2 3 17 19 43 38 46 32 168 80 204 80 30 0 30 17 3 50 -19 22 -29 28 -35
19 -6 -10 -13 -9 -31 3 -22 15 -26 14 -53 -6 l-30 -21 23 35 24 35 -36 -39
c-20 -22 -36 -34 -36 -27 0 7 -5 9 -11 5 -7 -4 -7 1 1 16 8 15 8 20 1 16 -6
-4 -11 -2 -11 4 0 6 -4 8 -10 5 -5 -3 -10 -11 -10 -16 0 -6 5 -7 11 -3 8 4 8
1 1 -12 -18 -33 -41 -59 -42 -47 0 6 5 15 10 18 6 3 10 11 10 16 0 6 -6 7 -12
2 -12 -7 -2 11 48 86 13 19 21 37 19 40 -3 2 -6 2 -8 0 -2 -2 -20 -28 -41 -56
-21 -29 -42 -53 -48 -53 -5 0 8 21 30 48 32 38 37 49 26 59 -10 10 -18 8 -41
-10 -59 -47 -66 -47 -16 0 44 41 59 49 88 49 29 -1 35 -4 31 -18 -2 -10 0 -18
6 -18 6 0 -4 -14 -21 -32 -17 -17 -31 -37 -31 -42 1 -6 14 5 30 24 17 19 30
29 30 24 0 -6 -9 -19 -20 -29 -28 -25 -25 -43 3 -19 l22 19 -19 -23 c-11 -12
-17 -24 -14 -27 13 -14 32 32 36 90 l4 65 -73 0 c-55 0 -70 -3 -59 -11 12 -8
12 -12 2 -16 -7 -3 -26 -16 -41 -29 -40 -34 -50 -30 -16 6 34 35 23 40 -14 8
-22 -20 -23 -20 -8 -2 28 34 19 40 -14 8 -16 -16 -27 -22 -24 -13 4 10 0 19
-8 22 -8 3 -36 36 -63 74 -26 37 -51 72 -56 78 -4 5 -8 -25 -8 -68z m250 -162
c-44 -45 -50 -50 -50 -40 0 11 73 85 83 85 6 0 -9 -20 -33 -45z m-90 -66 c0
-64 12 -92 23 -51 4 13 5 12 6 -5 1 -24 -16 -40 -29 -27 -10 11 -18 164 -8
158 5 -3 8 -36 8 -75z m-60 39 c-22 -37 -27 -118 -10 -163 9 -24 12 -25 27
-14 14 12 16 12 11 -1 -2 -8 -12 -16 -22 -18 -21 -4 -46 53 -46 105 0 42 33
123 49 123 6 0 2 -15 -9 -32z m25 -229 c11 -17 -1 -21 -15 -4 -8 9 -8 15 -2
15 6 0 14 -5 17 -11z m185 -74 c-7 -9 -15 -13 -17 -11 -7 7 7 26 19 26 6 0 6
-6 -2 -15z"/>
<path d="M3869 2840 c-12 -27 -26 -45 -29 -39 -4 6 -13 -3 -20 -21 -13 -32 -9
-47 10 -35 13 8 73 136 66 142 -2 2 -14 -19 -27 -47z"/>
<path d="M2545 2863 c15 -41 16 -111 1 -168 -8 -32 -13 -61 -11 -63 2 -2 11 9
21 24 25 38 30 138 10 187 -16 36 -35 54 -21 20z"/>
<path d="M2700 2851 c14 -11 30 -21 35 -21 11 0 -7 14 -40 31 -13 7 -12 3 5
-10z"/>
<path d="M3932 2823 c-15 -48 -8 -55 8 -8 7 20 10 38 8 41 -3 2 -10 -13 -16
-33z"/>
<path d="M2677 2839 c7 -7 15 -10 18 -7 3 3 -2 9 -12 12 -14 6 -15 5 -6 -5z"/>
<path d="M3012 2773 c0 -39 -3 -85 -7 -102 -4 -17 -2 -31 3 -31 12 0 24 154
13 182 -6 16 -8 1 -9 -49z"/>
<path d="M3310 2810 c0 -5 5 -10 11 -10 5 0 7 5 4 10 -3 6 -8 10 -11 10 -2 0
-4 -4 -4 -10z"/>
<path d="M2768 2781 c18 -17 37 -31 44 -31 6 0 9 1 7 3 -2 2 -22 15 -44 31
l-40 28 33 -31z"/>
<path d="M3335 2780 c-3 -5 -1 -10 4 -10 6 0 11 5 11 10 0 6 -2 10 -4 10 -3 0
-8 -4 -11 -10z"/>
<path d="M2616 2736 c-15 -26 -26 -59 -25 -78 1 -31 2 -30 14 15 16 56 40 97
59 97 7 0 21 -10 29 -22 9 -13 16 -18 16 -11 1 17 -28 43 -49 43 -11 0 -28
-17 -44 -44z"/>
<path d="M2933 2730 c0 -25 2 -35 4 -22 2 12 2 32 0 45 -2 12 -4 2 -4 -23z"/>
<path d="M3380 2749 c0 -5 5 -7 10 -4 6 3 10 8 10 11 0 2 -4 4 -10 4 -5 0 -10
-5 -10 -11z"/>
<path d="M3888 2715 c-3 -11 -9 -29 -13 -40 -3 -11 1 -7 10 8 9 16 15 33 12
40 -2 6 -6 3 -9 -8z"/>
<path d="M2860 2701 c0 -5 5 -13 10 -16 6 -3 10 -2 10 4 0 5 -4 13 -10 16 -5
3 -10 2 -10 -4z"/>
<path d="M2965 2690 c-3 -6 1 -7 9 -4 18 7 21 14 7 14 -6 0 -13 -4 -16 -10z"/>
<path d="M2880 2666 c0 -2 8 -10 18 -17 15 -13 16 -12 3 4 -13 16 -21 21 -21
13z"/>
<path d="M3845 2599 c-10 -56 -1 -59 12 -4 6 25 7 45 2 45 -4 0 -10 -18 -14
-41z"/>
<path d="M2915 2620 c3 -5 11 -10 16 -10 6 0 7 5 4 10 -3 6 -11 10 -16 10 -6
0 -7 -4 -4 -10z"/>
<path d="M3960 2609 c-14 -4 -23 -8 -20 -9 21 -7 41 -7 46 2 9 14 2 16 -26 7z"/>
<path d="M3885 2600 l-20 -9 20 0 c11 0 27 4 35 9 13 9 13 10 0 9 -8 0 -24 -4
-35 -9z"/>
<path d="M2591 2584 c-1 -22 27 -54 47 -54 7 0 12 5 12 11 0 5 -4 8 -9 5 -9
-6 -35 20 -44 44 -4 10 -6 9 -6 -6z"/>
<path d="M2757 2522 c-5 -46 -6 -86 -3 -89 9 -9 17 60 14 117 -3 53 -3 52 -11
-28z"/>
<path d="M2940 2582 c0 -13 74 -72 89 -72 6 0 11 5 11 10 0 6 -7 10 -15 10 -8
0 -30 14 -50 31 -19 17 -35 26 -35 21z"/>
<path d="M3785 2570 c3 -5 11 -10 16 -10 6 0 7 5 4 10 -3 6 -11 10 -16 10 -6
0 -7 -4 -4 -10z"/>
<path d="M2531 2528 c20 -18 55 -48 78 -66 29 -24 41 -41 41 -60 0 -15 8 -36
16 -47 l16 -20 -5 20 c-3 11 -8 34 -12 52 -5 25 -24 45 -88 93 -45 34 -66 46
-46 28z"/>
<path d="M3820 2526 c0 -2 7 -9 15 -16 9 -7 15 -8 15 -2 0 5 -7 12 -15 16 -8
3 -15 4 -15 2z"/>
<path d="M4072 2493 c-14 -26 -25 -103 -15 -103 24 1 35 18 23 39 -14 28 -4
60 23 71 l22 9 -22 0 c-12 1 -26 -7 -31 -16z"/>
<path d="M4042 2480 c0 -14 2 -19 5 -12 2 6 2 18 0 25 -3 6 -5 1 -5 -13z"/>
<path d="M3861 2444 c0 -11 3 -14 6 -6 3 7 2 16 -1 19 -3 4 -6 -2 -5 -13z"/>
<path d="M2791 2424 c-6 -15 -9 -29 -7 -32 3 -2 10 8 16 23 14 36 7 43 -9 9z"/>
<path d="M3919 2432 c6 -12 16 -24 22 -28 8 -4 8 -1 0 14 -6 12 -16 24 -22 28
-8 4 -8 1 0 -14z"/>
<path d="M2747 2414 c-4 -4 -7 -17 -7 -28 1 -19 1 -20 11 -3 11 19 8 43 -4 31z"/>
<path d="M3901 2384 c0 -11 3 -14 6 -6 3 7 2 16 -1 19 -3 4 -6 -2 -5 -13z"/>
<path d="M3970 2376 c0 -2 7 -9 15 -16 13 -11 14 -10 9 4 -5 14 -24 23 -24 12z"/>
<path d="M2763 2353 c-3 -10 -8 -22 -10 -28 -3 -5 3 -1 11 9 16 20 21 36 11
36 -3 0 -8 -8 -12 -17z"/>
<path d="M3851 2355 c-1 -11 -8 -32 -15 -47 -8 -16 -11 -28 -6 -28 11 0 33 67
27 83 -3 6 -6 3 -6 -8z"/>
<path d="M3090 2335 c0 -8 7 -15 15 -15 8 0 15 7 15 15 0 8 -7 15 -15 15 -8 0
-15 -7 -15 -15z"/>
<path d="M2894 2315 c-9 -23 3 -45 24 -45 25 0 46 25 38 45 -7 19 -55 20 -62
0z"/>
<path d="M3121 2317 c-11 -15 -6 -47 9 -47 4 0 13 7 20 16 11 12 11 18 -2 30
-13 13 -16 13 -27 1z"/>
<path d="M2330 2300 c-6 -11 -8 -20 -6 -20 3 0 10 9 16 20 6 11 8 20 6 20 -3
0 -10 -9 -16 -20z"/>
<path d="M3042 2293 c-29 -42 -133 -240 -164 -313 l-28 -64 35 -59 c20 -33 34
-61 32 -64 -5 -4 -43 39 -67 76 l-16 23 -42 -54 c-35 -46 -42 -62 -41 -99 0
-34 2 -39 9 -24 10 24 12 15 10 -45 -1 -25 -10 -63 -20 -85 -9 -22 -23 -58
-30 -80 -6 -22 -25 -75 -41 -119 -17 -43 -28 -80 -27 -82 4 -4 71 14 173 47
69 22 218 44 355 54 127 8 129 9 136 56 9 53 24 60 17 8 -8 -53 2 -59 104 -59
45 0 83 -4 85 -10 2 -5 15 0 31 13 20 16 37 52 67 140 42 122 47 147 30 147
-12 0 -24 -45 -16 -59 4 -5 2 -12 -4 -16 -5 -3 -10 2 -10 12 0 15 -2 15 -9 4
-8 -12 -13 -12 -35 3 -33 21 -33 24 2 18 25 -5 23 -1 -28 54 -59 64 -82 78
-111 69 -13 -4 -19 -1 -19 9 0 24 -29 7 -36 -20 -9 -33 7 -48 76 -73 39 -14
68 -33 82 -52 12 -16 28 -29 35 -29 7 0 13 -4 13 -10 0 -21 -30 -8 -55 24 -17
23 -44 40 -85 55 -33 12 -62 26 -65 31 -15 24 -21 4 -24 -72 -1 -45 -4 -84 -6
-88 -2 -3 25 -14 60 -24 36 -10 70 -25 77 -34 11 -14 10 -15 -7 -7 -82 34
-120 41 -165 32 -48 -10 -65 -20 -65 -40 0 -7 -11 -14 -24 -15 -15 -2 -21 0
-17 7 12 18 -14 12 -46 -10 l-30 -22 -26 27 c-29 29 -11 38 20 10 12 -12 21
-14 30 -7 16 13 140 63 157 63 6 0 16 12 21 26 12 32 13 141 1 148 -12 8 -86
-19 -121 -44 -15 -11 -34 -20 -42 -20 -20 0 82 59 124 70 51 14 71 36 57 61
-8 17 -16 19 -42 13 -18 -3 -34 -9 -37 -13 -3 -3 -11 -6 -19 -6 -8 0 -19 -9
-25 -20 -6 -11 -12 -22 -13 -24 -2 -2 -9 1 -16 7 -11 9 -18 7 -34 -11 -28 -30
-97 -156 -89 -164 3 -3 -2 -12 -12 -19 -9 -7 -17 -23 -17 -36 0 -13 -7 -24
-17 -26 -12 -2 -15 2 -11 17 6 24 -7 27 -39 10 -16 -9 -23 -8 -29 2 -14 23
-11 24 40 21 36 -3 50 0 54 11 6 16 -18 31 -34 21 -5 -3 -9 0 -9 5 0 14 -37
14 -45 1 -8 -12 -25 -13 -25 -1 0 5 29 47 65 93 36 47 65 88 65 92 0 4 -12 23
-27 41 -20 25 -33 33 -48 30 -16 -5 -15 -2 5 12 14 10 38 32 54 48 17 18 26
23 23 13 -5 -13 -1 -18 11 -18 14 0 15 -2 3 -9 -12 -8 -13 -14 -3 -35 15 -34
26 -33 50 7 29 47 23 81 -14 85 -56 6 -60 11 -21 39 21 15 34 30 30 33 -5 4
-30 13 -58 20 -27 7 -56 18 -63 23 -15 12 -41 -17 -42 -45 0 -22 21 -68 32
-68 4 0 8 -8 8 -17 -1 -14 -6 -12 -25 10 -28 32 -33 82 -11 112 12 17 12 21
-5 33 -27 19 -16 29 26 27 39 -3 62 -15 27 -15 -12 0 -22 -4 -22 -9 0 -17 43
-20 78 -5 43 18 54 11 15 -10 l-28 -15 27 -1 c26 0 88 29 88 41 0 11 -31 20
-43 12 -7 -3 -1 6 13 21 21 24 23 30 13 57 -14 37 -85 149 -95 149 -4 0 -15
-12 -26 -27z m-117 -262 c-3 -6 -1 -29 4 -53 9 -38 8 -41 -5 -24 -16 23 -19
86 -3 86 5 0 8 -4 4 -9z m-15 -119 c0 -15 -2 -15 -10 -2 -13 20 -13 33 0 25 6
-3 10 -14 10 -23z m-66 -111 c-6 -6 -24 19 -24 34 1 6 7 1 15 -9 8 -11 12 -22
9 -25z m-14 -32 c0 -6 -4 -7 -10 -4 -5 3 -10 11 -10 16 0 6 5 7 10 4 6 -3 10
-11 10 -16z m336 -266 c-6 -6 -46 20 -46 30 0 4 11 0 25 -9 14 -9 24 -19 21
-21z m-188 -47 c17 -1 32 -4 32 -8 0 -14 -74 -8 -100 8 l-25 15 30 -7 c17 -5
45 -8 63 -8z"/>
<path d="M2687 2288 c-3 -13 -8 -34 -11 -48 -4 -14 2 -8 13 15 22 46 24 55 12
55 -5 0 -11 -10 -14 -22z"/>
<path d="M2736 2293 c-6 -14 -5 -15 5 -6 7 7 10 15 7 18 -3 3 -9 -2 -12 -12z"/>
<path d="M4047 2304 c-7 -12 40 -70 49 -61 4 4 1 13 -8 20 -9 6 -20 20 -25 31
-6 10 -13 15 -16 10z"/>
<path d="M3340 2253 c-25 -24 -66 -65 -92 -91 -26 -26 -48 -43 -48 -37 0 5 16
26 36 46 20 21 34 43 32 49 -4 14 -25 -3 -53 -42 -8 -12 -17 -19 -20 -16 -4 3
8 22 25 42 28 32 30 36 12 36 -11 0 -27 -10 -36 -22 -15 -20 -16 -21 -11 -3 4
11 9 26 12 33 10 24 -14 12 -25 -14 -8 -17 -9 -31 -2 -44 13 -25 13 -70 -1
-70 -6 0 0 -13 13 -28 l23 -28 18 36 c20 38 95 120 110 120 5 0 4 -7 -3 -15
-15 -18 -1 -19 20 -2 13 10 44 87 37 93 -1 1 -22 -18 -47 -43z"/>
<path d="M3152 2269 c-7 -12 -11 -23 -8 -26 8 -9 36 17 36 33 0 20 -13 17 -28
-7z"/>
<path d="M3652 2267 c-22 -23 -22 -24 -4 -40 26 -24 39 -21 17 3 -19 21 -7 28
13 8 9 -9 12 -5 12 20 0 38 -9 40 -38 9z"/>
<path d="M2711 2243 c-10 -26 -10 -27 4 -9 8 11 15 23 15 28 0 15 -7 8 -19
-19z"/>
<path d="M2248 2183 c-29 -43 -63 -91 -75 -108 -31 -42 -57 -88 -45 -81 6 3
46 59 89 124 91 134 96 142 89 142 -3 0 -29 -35 -58 -77z"/>
<path d="M3604 2226 c-4 -11 2 -26 16 -42 19 -20 21 -24 7 -24 -9 0 -23 14
-32 30 -9 17 -20 30 -25 30 -16 0 -12 -13 15 -53 14 -20 21 -37 15 -37 -13 0
-50 60 -50 83 0 22 -5 22 -43 -7 -18 -13 -49 -27 -69 -30 -21 -4 -40 -11 -43
-17 -4 -6 4 -8 22 -4 26 5 27 5 4 -5 -15 -7 -21 -15 -17 -26 3 -9 6 -19 6 -24
0 -4 10 -6 23 -3 21 4 21 3 -3 -11 -26 -16 -67 -23 -43 -8 9 6 7 16 -7 40 -14
22 -18 41 -14 59 7 25 7 25 -20 8 -18 -12 -26 -14 -26 -5 0 10 -3 10 -15 0 -9
-7 -14 -15 -12 -17 2 -2 -14 -22 -36 -44 -30 -30 -37 -43 -28 -49 11 -6 10
-10 -4 -17 -9 -6 -15 -18 -14 -27 3 -13 12 -6 36 28 18 25 38 46 45 46 6 0 1
-12 -13 -27 -13 -16 -29 -38 -36 -49 -11 -21 -11 -21 17 -11 16 6 32 20 35 31
4 14 8 17 12 8 4 -9 8 -10 18 -2 10 8 15 8 20 0 9 -14 11 -12 -52 -38 -28 -12
-65 -22 -82 -22 -37 0 -38 -8 -6 -39 14 -13 25 -27 25 -33 0 -5 4 -7 9 -4 4 3
19 -6 31 -19 29 -31 47 -33 26 -3 -23 32 -19 48 4 18 28 -36 52 -17 69 54 18
76 27 63 11 -18 -9 -49 -17 -67 -31 -71 -10 -4 -19 -10 -19 -15 0 -4 -15 -13
-32 -20 l-33 -11 23 -13 c24 -13 82 -10 82 5 0 5 -15 6 -32 4 l-33 -5 28 12
c15 7 27 16 27 20 0 5 11 6 25 2 24 -6 25 -4 19 27 l-7 34 22 -28 c39 -48 59
-53 92 -21 48 46 76 124 44 124 -8 0 -15 -7 -15 -15 0 -21 -30 -78 -37 -71 -3
3 -1 11 4 18 6 7 14 27 17 43 6 28 3 32 -36 52 -37 19 -39 22 -18 22 14 0 34
-6 44 -14 11 -8 28 -15 38 -15 23 0 24 46 1 79 -12 18 -13 23 -2 19 8 -2 19
-23 24 -45 12 -51 30 -71 22 -25 -6 28 0 43 35 95 27 39 37 62 29 65 -7 2 -21
13 -31 25 -18 18 -20 19 -26 3z m-59 -64 l19 -27 -24 16 c-24 16 -38 39 -23
39 4 0 17 -13 28 -28z m-75 -102 c0 -5 -11 -10 -25 -10 -14 0 -25 5 -25 10 0
6 11 10 25 10 14 0 25 -4 25 -10z"/>
<path d="M3393 2218 c-11 -18 -12 -37 -3 -43 9 -6 60 33 60 46 0 14 -48 11
-57 -3z"/>
<path d="M3827 2212 c3 -12 9 -25 14 -28 14 -8 11 10 -6 32 -13 18 -14 18 -8
-4z"/>
<path d="M3689 2193 c-28 -32 -59 -90 -52 -96 3 -4 -2 -9 -11 -13 -16 -6 -21
-30 -10 -58 5 -13 15 -15 43 -11 34 5 35 4 9 -6 -28 -11 -39 -38 -15 -40 6 0
-8 -9 -33 -20 l-45 -20 28 -21 c29 -21 37 -44 12 -35 -19 8 -31 -13 -14 -24 8
-5 10 -9 6 -9 -4 0 -2 -6 5 -14 11 -12 18 -11 43 7 l30 20 -30 -32 c-27 -29
-28 -34 -14 -44 9 -7 14 -18 12 -24 -3 -7 0 -13 5 -13 5 0 17 39 26 88 10 48
20 98 22 111 3 14 -2 31 -11 41 -16 17 -16 18 4 13 20 -5 21 -2 20 88 0 52 -4
102 -8 112 -6 18 -7 18 -22 0z m-4 -93 c-3 -5 -11 -10 -16 -10 -6 0 -7 5 -4
10 3 6 11 10 16 10 6 0 7 -4 4 -10z m-11 -186 c22 -9 20 -34 -3 -34 -10 0 -21
9 -24 20 -5 21 1 24 27 14z m-24 -58 c0 -2 -8 -10 -17 -17 -16 -13 -17 -12 -4
4 13 16 21 21 21 13z"/>
<path d="M2602 2128 c-131 -191 -172 -253 -172 -262 0 -6 13 8 28 30 51 78
121 179 157 227 19 26 31 47 26 47 -5 0 -23 -19 -39 -42z"/>
<path d="M3876 2133 c-4 -9 -2 -31 4 -49 8 -24 8 -39 0 -54 -24 -44 -39 -19
-34 55 3 41 2 44 -5 20 -15 -52 -13 -105 5 -112 30 -11 49 23 49 92 0 64 -7
81 -19 48z"/>
<path d="M4180 2120 c10 -19 100 -147 147 -209 2 -2 5 -2 8 0 2 3 -29 52 -71
110 -80 111 -104 140 -84 99z"/>
<path d="M4034 2075 c-3 -25 -2 -76 3 -113 l10 -67 2 113 c0 61 -1 112 -3 112
-3 0 -8 -20 -12 -45z"/>
<path d="M2776 2094 c-22 -21 -17 -48 10 -52 28 -4 51 24 38 46 -15 23 -29 25
-48 6z"/>
<path d="M3981 2071 c-1 -24 42 -273 58 -341 12 -49 14 -2 2 53 -5 23 -17 87
-26 142 -25 143 -33 175 -34 146z"/>
<path d="M3134 2035 c-18 -14 -18 -14 7 -15 15 0 32 7 39 15 10 12 9 15 -7 15
-10 0 -28 -7 -39 -15z"/>
<path d="M3185 2020 c-3 -5 -1 -10 4 -10 6 0 11 5 11 10 0 6 -2 10 -4 10 -3 0
-8 -4 -11 -10z"/>
<path d="M4231 2003 c-1 -7 10 -36 22 -65 13 -29 34 -79 47 -111 12 -31 27
-60 33 -64 6 -4 8 0 5 8 -4 8 -16 39 -28 69 -32 80 -79 177 -79 163z"/>
<path d="M3127 1969 l-22 -18 33 -7 c25 -5 32 -12 32 -30 0 -12 7 -29 15 -38
20 -19 19 -28 -2 -24 -11 2 -27 -8 -41 -26 -19 -26 -20 -31 -7 -39 9 -4 13
-12 10 -18 -4 -5 -2 -9 4 -9 15 0 23 18 11 25 -24 15 -9 31 26 27 l37 -5 -6
43 -5 42 29 -28 c18 -17 33 -24 39 -18 6 6 -17 33 -61 75 -70 65 -71 65 -92
48z"/>
<path d="M3596 1975 c4 -8 13 -15 21 -15 13 0 13 3 3 15 -7 8 -16 15 -21 15
-5 0 -6 -7 -3 -15z"/>
<path d="M2095 1970 c-3 -5 -1 -10 4 -10 6 0 11 5 11 10 0 6 -2 10 -4 10 -3 0
-8 -4 -11 -10z"/>
<path d="M4206 1928 c4 -37 0 -83 -11 -132 -14 -64 -14 -80 -3 -102 18 -38 46
-54 58 -34 13 20 12 57 -1 66 -7 4 -9 0 -5 -12 8 -26 -8 -48 -29 -40 -15 5
-16 15 -11 69 16 149 17 193 7 217 -9 20 -10 14 -5 -32z"/>
<path d="M2046 1907 c-16 -23 -22 -36 -12 -28 23 19 59 71 49 71 -4 -1 -21
-20 -37 -43z"/>
<path d="M2662 1907 c-40 -43 -15 -85 27 -46 24 23 27 42 8 58 -11 8 -19 5
-35 -12z"/>
<path d="M3528 1865 c-16 -18 -28 -36 -28 -39 0 -15 26 -3 48 22 21 24 22 24
12 3 -10 -19 -9 -22 2 -19 15 5 18 60 3 64 -5 1 -22 -12 -37 -31z"/>
<path d="M1993 1838 c-26 -30 -40 -53 -25 -44 12 7 56 66 49 66 -2 0 -13 -10
-24 -22z"/>
<path d="M3035 1850 c-7 -12 7 -40 33 -63 29 -27 36 -5 11 37 -21 37 -33 44
-44 26z"/>
<path d="M3402 1839 c-12 -5 -22 -13 -22 -19 0 -7 6 -8 19 0 25 13 44 13 36 0
-3 -5 -2 -10 4 -10 18 0 20 16 3 27 -10 6 -26 7 -40 2z"/>
<path d="M3237 1829 c16 -20 7 -29 -29 -29 -30 0 -40 -19 -10 -21 13 0 14 -2
2 -6 -8 -3 -27 -17 -42 -31 -26 -24 -29 -24 -46 -9 -12 11 -22 13 -32 7 -13
-8 -12 -12 5 -25 19 -16 19 -16 -7 -10 -32 6 -35 -1 -11 -27 14 -16 15 -18 0
-18 -9 0 -19 5 -22 10 -7 11 -25 4 -25 -10 0 -5 9 -11 20 -15 19 -6 18 -8 -8
-30 l-27 -23 29 -12 c16 -6 29 -9 30 -8 71 126 105 172 134 185 18 7 36 20 39
29 3 8 12 13 19 10 25 -10 22 9 -5 29 -16 11 -21 13 -14 4z"/>
<path d="M2396 1813 c-6 -14 -5 -15 5 -6 7 7 10 15 7 18 -3 3 -9 -2 -12 -12z"/>
<path d="M3561 1816 c-9 -11 -6 -12 14 -8 14 2 22 8 19 13 -8 13 -20 11 -33
-5z"/>
<path d="M4050 1822 c0 -8 10 -28 22 -45 42 -59 145 -265 178 -355 13 -34 27
-65 31 -68 11 -7 12 -51 1 -58 -12 -7 -35 -114 -27 -126 4 -6 29 -22 57 -36
27 -14 47 -20 43 -15 -3 6 -24 20 -46 31 -44 23 -49 45 -24 115 18 50 19 85 2
110 -7 11 -24 49 -36 85 -39 111 -200 401 -201 362z"/>
<path d="M3505 1790 c-2 -4 14 -24 37 -46 34 -32 38 -34 25 -12 -22 36 -22 45
2 24 19 -17 51 -13 51 8 0 12 -108 37 -115 26z"/>
<path d="M4260 1781 c0 -11 31 -24 39 -16 3 3 -1 10 -9 15 -19 12 -30 12 -30
1z"/>
<path d="M3106 1772 c-3 -5 1 -15 9 -22 21 -17 27 -9 10 13 -7 10 -16 14 -19
9z"/>
<path d="M2523 1740 c-40 -24 -42 -47 -6 -56 35 -9 57 7 61 45 4 37 -9 40 -55
11z"/>
<path d="M2360 1739 c0 -5 5 -7 10 -4 6 3 10 8 10 11 0 2 -4 4 -10 4 -5 0 -10
-5 -10 -11z"/>
<path d="M4346 1730 c4 -14 13 -36 21 -50 l14 -25 -7 25 c-4 14 -13 36 -21 50
l-14 25 7 -25z"/>
<path d="M3602 1732 c-12 -8 -7 -42 7 -42 12 0 31 23 31 37 0 15 -18 17 -38 5z"/>
<path d="M2344 1678 l-19 -23 23 19 c21 18 27 26 19 26 -2 0 -12 -10 -23 -22z"/>
<path d="M4056 1622 c3 -40 12 -94 20 -120 8 -26 19 -100 23 -164 l8 -117 47
-52 c25 -28 49 -62 52 -75 3 -13 10 -24 15 -24 21 0 0 39 -57 106 l-43 50 -10
120 c-5 65 -17 146 -25 179 -9 32 -16 73 -17 90 -1 16 -5 41 -10 55 -6 16 -7
0 -3 -48z"/>
<path d="M2620 1659 c0 -5 5 -7 10 -4 6 3 10 8 10 11 0 2 -4 4 -10 4 -5 0 -10
-5 -10 -11z"/>
<path d="M2268 1625 c-35 -32 -82 -94 -76 -100 2 -3 19 16 36 40 17 25 46 54
64 65 18 11 26 20 18 20 -8 0 -27 -11 -42 -25z"/>
<path d="M2986 1619 c-13 -22 -15 -29 -5 -24 28 16 48 38 43 46 -9 16 -19 10
-38 -22z"/>
<path d="M2592 1632 c-17 -11 -62 -73 -62 -86 0 -6 7 1 17 14 9 14 27 37 41
53 26 27 27 33 4 19z"/>
<path d="M2177 1496 c-4 -10 -5 -21 -2 -24 9 -9 17 6 13 25 -3 17 -4 17 -11
-1z"/>
<path d="M2500 1475 c-18 -47 -107 -61 -141 -22 l-20 22 11 -23 c19 -38 53
-48 104 -28 33 13 47 25 55 47 12 35 4 39 -9 4z"/>
<path d="M1610 1431 c-30 -27 -52 -52 -49 -55 3 -3 30 19 59 49 30 30 52 55
50 55 -3 0 -30 -22 -60 -49z"/>
<path d="M2211 1435 c-1 -5 8 -21 19 -35 11 -14 20 -20 20 -14 0 7 -9 22 -20
35 -10 13 -19 20 -19 14z"/>
<path d="M2099 1410 l-24 -20 28 11 c15 7 27 16 27 21 0 12 -5 10 -31 -12z"/>
<path d="M3516 1354 c-14 -21 -33 -60 -42 -86 -14 -44 -14 -49 5 -85 39 -75
43 -78 82 -57 19 9 52 23 74 30 22 7 32 13 23 13 -10 1 -41 -8 -69 -18 l-51
-20 -24 24 c-30 30 -42 74 -23 86 10 6 11 9 1 9 -15 0 6 55 39 101 12 17 19
32 16 35 -3 3 -17 -12 -31 -32z"/>
<path d="M2014 1348 l-19 -23 23 19 c21 18 27 26 19 26 -2 0 -12 -10 -23 -22z"/>
<path d="M3254 1338 c-3 -4 11 -8 30 -8 20 0 36 2 36 4 0 8 -61 12 -66 4z"/>
<path d="M3338 1333 c6 -2 18 -2 25 0 6 3 1 5 -13 5 -14 0 -19 -2 -12 -5z"/>
<path d="M4611 1318 c0 -13 4 -32 9 -43 7 -16 9 -13 9 17 1 20 -3 40 -9 43 -6
3 -10 -4 -9 -17z"/>
<path d="M3170 1319 c0 -5 5 -7 10 -4 6 3 10 8 10 11 0 2 -4 4 -10 4 -5 0 -10
-5 -10 -11z"/>
<path d="M1980 1302 c0 -4 26 -8 58 -9 42 -1 50 1 32 7 -33 11 -90 12 -90 2z"/>
<path d="M2710 1285 c-11 -13 -10 -14 4 -9 9 3 16 10 16 15 0 13 -6 11 -20 -6z"/>
<path d="M2155 1270 c75 -25 92 -24 40 1 -22 10 -53 18 -70 18 -23 0 -17 -4
30 -19z"/>
<path d="M4530 1279 c0 -5 5 -7 10 -4 6 3 10 8 10 11 0 2 -4 4 -10 4 -5 0 -10
-5 -10 -11z"/>
<path d="M2836 1261 c-4 -5 3 -7 14 -4 23 6 26 13 6 13 -8 0 -17 -4 -20 -9z"/>
<path d="M4531 1247 c-15 -19 -3 -49 18 -45 9 2 16 13 16 27 0 29 -17 37 -34
18z"/>
<path d="M2750 1243 c-50 -9 -40 -20 11 -12 28 5 54 11 57 14 6 6 -30 5 -68
-2z"/>
<path d="M3356 1230 c-29 -10 2 -19 34 -9 14 4 23 8 20 9 -18 6 -38 6 -54 0z"/>
<path d="M3266 1221 c-4 -5 1 -8 9 -7 21 3 31 16 12 16 -9 0 -18 -4 -21 -9z"/>
<path d="M4397 1203 c-2 -5 -7 -24 -11 -44 -5 -27 -3 -36 8 -36 8 0 12 5 10
11 -3 7 3 20 11 31 15 19 16 19 5 -3 -14 -29 -6 -42 9 -14 12 23 3 62 -15 62
-7 0 -15 -3 -17 -7z"/>
<path d="M4539 1157 c-15 -23 -37 -65 -49 -94 l-22 -51 56 -107 c40 -77 56
-117 56 -146 0 -28 4 -39 15 -39 8 0 15 -5 15 -12 0 -6 -3 -8 -6 -5 -8 8 -54
-50 -99 -124 -38 -61 -44 -107 -22 -167 15 -43 29 -43 41 -1 15 49 70 99 110
99 22 0 36 -6 40 -16 9 -24 8 -26 -13 -15 -17 9 -19 6 -24 -35 -2 -25 -10 -51
-17 -57 -10 -9 -12 -8 -7 4 5 16 -9 39 -25 39 -5 0 -13 -12 -19 -27 -8 -21 -5
-33 16 -65 32 -48 55 -48 97 -2 18 20 47 45 63 56 22 15 19 9 -12 -20 -24 -23
-43 -46 -43 -52 0 -25 28 -5 101 72 70 74 77 79 69 51 -5 -19 -5 -33 0 -33 5
0 14 18 20 40 9 34 8 45 -10 77 -17 32 -80 123 -145 209 -9 12 -29 71 -45 130
-30 111 -75 243 -89 257 -4 4 -13 1 -20 -7 -10 -12 -10 -22 0 -50 11 -30 10
-43 -4 -83 -11 -32 -15 -37 -11 -16 9 55 8 97 -4 101 -6 2 -8 10 -5 18 3 8 1
14 -4 14 -9 0 -32 -45 -47 -90 -4 -12 -5 -12 -5 1 -2 30 30 91 50 96 10 3 19
12 19 19 0 8 5 14 10 14 6 0 10 14 10 30 0 41 -10 38 -41 -13z m61 -202 c-6
-26 -8 -56 -4 -67 4 -14 2 -18 -5 -14 -6 4 -11 13 -11 21 0 24 22 117 26 112
3 -2 0 -26 -6 -52z m-43 -47 c-3 -8 -6 -5 -6 6 -1 11 2 17 5 13 3 -3 4 -12 1
-19z m199 -472 c-8 -20 -20 -36 -25 -36 -14 0 -14 -1 9 45 11 22 21 48 21 60
2 14 3 12 6 -6 2 -15 -3 -43 -11 -63z"/>
<path d="M2795 1170 l-20 -9 20 1 c11 0 31 4 45 8 l25 8 -25 0 c-14 0 -34 -3
-45 -8z"/>
<path d="M3685 1175 c23 -8 125 -11 113 -4 -7 5 -38 8 -68 8 -30 0 -50 -2 -45
-4z"/>
<path d="M2685 1145 c-39 -17 -11 -18 35 0 23 9 28 14 15 14 -11 0 -33 -6 -50
-14z"/>
<path d="M4420 1120 c-7 -13 -7 -26 -2 -37 8 -14 12 -12 25 14 15 29 14 43 -4
43 -5 0 -13 -9 -19 -20z"/>
<path d="M4475 1123 c-22 -22 -36 -59 -29 -78 10 -25 20 -17 40 32 11 27 21
51 22 55 6 14 -16 8 -33 -9z"/>
<path d="M1995 1122 c6 -6 44 -19 85 -30 41 -11 84 -23 95 -27 16 -6 18 -5 8
5 -6 7 -44 20 -85 30 -40 10 -82 21 -93 25 -14 6 -17 5 -10 -3z"/>
<path d="M2795 1110 c-3 -6 1 -7 9 -4 18 7 21 14 7 14 -6 0 -13 -4 -16 -10z"/>
<path d="M2560 1100 c-8 -5 -12 -12 -9 -15 4 -3 12 1 19 10 14 17 11 19 -10 5z"/>
<path d="M2740 1094 c-17 -9 -20 -14 -9 -14 9 0 22 7 29 15 15 18 13 18 -20
-1z"/>
<path d="M3690 1065 c-16 -17 -18 -25 -9 -30 7 -5 10 -4 6 2 -4 6 4 18 18 27
14 9 25 12 25 7 0 -6 -8 -14 -17 -20 -10 -5 -15 -12 -12 -15 3 -3 17 7 32 22
l26 27 -24 1 c-13 1 -33 -8 -45 -21z"/>
<path d="M3752 1057 c-27 -28 -29 -33 -13 -34 11 -1 27 8 38 20 16 19 16 20 0
8 -22 -17 -33 -9 -12 9 11 9 19 10 26 3 19 -19 -49 -83 -93 -88 -42 -5 -46 0
-22 26 14 16 13 17 -8 17 -13 0 -55 4 -94 9 -75 9 -98 7 -88 -8 3 -5 0 -9 -5
-9 -6 0 -11 5 -11 10 0 17 -22 11 -57 -16 -54 -41 -44 -48 61 -40 52 4 96 3
99 -1 3 -4 -43 -9 -101 -11 -59 -2 -108 -5 -110 -6 -1 -2 -6 -42 -9 -90 l-6
-86 39 -1 c21 -1 50 -4 64 -8 25 -7 24 -8 -34 -69 -58 -61 -64 -72 -25 -52 10
6 19 9 19 6 0 -7 -61 -66 -68 -66 -3 0 -1 5 6 12 18 18 15 27 -7 21 -19 -5
-31 -46 -31 -110 0 -17 -3 -38 -6 -47 -7 -17 -34 -22 -34 -6 0 6 4 10 10 10
12 0 18 39 28 168 l8 102 -39 0 -39 0 4 91 3 90 -31 -6 c-39 -7 -140 -47 -191
-76 -45 -26 -144 -61 -151 -54 -5 5 42 25 59 25 5 0 42 16 82 36 96 49 191 84
226 84 41 0 47 25 11 52 -17 12 -30 30 -30 41 0 17 4 16 34 -10 39 -32 43 -51
20 -95 -9 -17 -18 -60 -20 -95 l-4 -63 39 0 40 0 5 53 c3 28 7 93 10 143 l5
92 -157 7 c-225 9 -255 8 -375 -13 -94 -17 -111 -23 -132 -48 -14 -16 -25 -32
-25 -37 0 -8 45 1 72 14 22 11 38 11 38 0 0 -5 -12 -11 -27 -14 -57 -11 -103
-33 -92 -44 14 -14 -75 -172 -135 -238 l-45 -50 21 -22 c20 -21 20 -23 3 -73
-15 -46 -16 -64 -5 -168 7 -65 15 -137 19 -162 l6 -45 65 -12 c162 -32 160
-32 171 -11 6 11 13 18 16 15 2 -3 -2 -14 -9 -26 -16 -27 -47 -27 -164 -1
-148 33 -196 27 -360 -38 -44 -18 -78 -21 -228 -24 -141 -2 -175 -6 -171 -16
3 -8 5 -18 5 -23 0 -5 241 -9 596 -9 394 0 593 3 589 10 -3 6 -20 10 -37 10
-17 0 -62 9 -99 20 -74 22 -77 27 -59 89 13 47 5 51 -16 7 -10 -20 -21 -36
-25 -36 -14 0 -17 55 -4 73 13 18 14 18 17 -4 3 -21 6 -19 27 21 28 53 37 40
22 -30 -6 -28 -11 -57 -11 -64 0 -17 104 -56 159 -60 28 -2 47 -9 53 -19 7
-14 25 -17 106 -16 53 0 92 3 85 5 -24 10 -5 170 38 324 42 149 53 179 48 123
-3 -22 3 -39 18 -55 32 -34 131 -247 144 -309 15 -70 25 -89 50 -89 11 0 17 5
14 10 -11 18 73 246 117 318 21 34 38 42 38 17 0 -8 -6 -15 -14 -15 -13 0 -76
-130 -111 -231 -16 -44 -12 -103 7 -97 5 2 27 47 48 101 45 116 82 175 150
242 60 59 65 46 10 -27 -22 -29 -40 -61 -40 -70 0 -10 -5 -18 -11 -18 -7 0 -9
9 -6 22 6 23 6 23 -10 3 -24 -31 -83 -157 -83 -178 0 -10 -7 -31 -15 -47 -28
-53 7 -34 42 23 39 65 166 203 204 222 32 17 59 19 59 5 0 -5 -12 -10 -27 -10
-51 0 -280 -259 -237 -268 9 -2 26 6 39 18 14 13 31 20 42 16 14 -4 32 14 80
78 35 46 81 96 104 112 l41 28 19 -23 18 -22 33 24 c25 19 50 27 103 31 39 4
87 12 107 18 48 14 110 -3 144 -39 13 -14 24 -21 24 -16 0 20 -77 129 -114
161 -32 28 -44 32 -91 32 -61 0 -104 -13 -122 -37 -12 -16 -13 -15 -13 1 0 22
57 46 112 46 78 0 118 11 118 31 0 18 -7 21 -78 33 -33 6 -104 -16 -133 -41
-18 -15 -39 -17 -39 -4 0 6 34 22 75 38 41 15 75 32 75 36 0 5 -11 23 -25 42
-14 18 -48 84 -75 146 -31 74 -55 115 -66 118 -14 2 -14 5 -3 13 10 7 9 8 -6
3 -47 -17 -58 -18 -51 -7 4 7 3 12 -1 12 -17 0 -127 -71 -180 -117 -30 -25
-56 -43 -59 -40 -6 5 147 127 185 147 21 11 22 13 7 22 -21 12 -51 2 -104 -34
-24 -17 -46 -28 -48 -25 -3 3 18 20 46 38 29 18 46 35 40 37 -7 3 -32 -10 -56
-27 -25 -17 -50 -28 -59 -25 -14 6 -13 8 2 20 17 13 16 14 -8 10 -62 -10 -184
-92 -261 -175 -31 -33 -59 -70 -63 -81 -6 -20 -25 -28 -25 -11 0 14 72 102
117 143 43 38 136 100 188 125 30 14 83 78 73 89 -3 3 -18 -9 -32 -27 -15 -17
-29 -30 -31 -27 -2 2 14 25 36 51 22 26 36 47 31 47 -5 0 -21 -15 -35 -33 -14
-19 -31 -34 -39 -34 -7 0 -44 -21 -81 -46 -60 -41 -75 -47 -121 -47 -83 0
-146 11 -146 26 0 33 30 44 118 43 l87 -2 -88 -7 c-48 -4 -90 -10 -93 -13 -18
-18 16 -27 101 -27 l93 0 66 60 c37 33 72 60 79 60 6 -1 1 -7 -13 -15 -28 -16
-19 -21 10 -5 26 14 78 82 85 113 10 39 -22 36 -63 -6z m-762 -46 c25 -6 82
-11 127 -11 45 0 85 -4 88 -10 7 -12 17 -12 -128 0 -132 11 -167 18 -167 32 0
5 8 7 18 4 9 -3 37 -10 62 -15z m42 -53 c29 -6 59 -17 67 -24 17 -15 22 -13
-84 -39 -38 -10 -99 -31 -134 -46 -35 -16 -68 -26 -74 -22 -12 7 144 66 221
83 28 6 52 15 52 19 0 4 -32 14 -70 21 -54 10 -76 11 -95 2 -14 -7 -31 -12
-38 -11 -22 1 48 28 75 29 14 0 50 -5 80 -12z m-272 -101 c0 -7 -12 -25 -27
-38 -50 -45 -165 -131 -169 -126 -3 2 36 35 86 72 90 67 105 85 73 85 -25 0
-84 -37 -81 -51 2 -6 -3 -14 -9 -16 -24 -9 -13 26 15 45 50 35 112 51 112 29z
m1147 -18 c-22 -11 -41 -18 -43 -16 -5 5 56 37 71 36 6 0 -7 -9 -28 -20z
m-687 -20 c0 -5 -4 -8 -9 -4 -5 3 -12 1 -15 -4 -3 -5 -39 -15 -79 -22 -39 -7
-75 -17 -79 -23 -4 -6 -10 -7 -14 -3 -14 14 11 25 80 36 38 5 74 15 80 21 13
13 36 13 36 -1z m770 -48 c0 -38 -19 -82 -80 -181 -27 -46 -50 -87 -50 -92 0
-16 58 -8 84 13 20 16 26 29 26 58 0 48 17 98 36 105 33 13 72 -32 44 -49 -5
-3 -10 1 -10 10 0 21 -30 32 -40 15 -5 -8 -12 -40 -15 -72 -8 -70 -36 -98 -96
-98 -52 0 -51 18 3 101 71 110 106 199 77 199 -5 0 -7 5 -4 10 12 19 25 10 25
-19z m-777 -50 c17 -17 -9 -59 -48 -78 -19 -9 -35 -23 -35 -30 0 -7 -4 -13
-10 -13 -24 0 -7 28 30 49 46 25 67 56 48 67 -7 4 -28 11 -48 16 -32 7 -32 7
9 3 24 -2 48 -8 54 -14z m447 1 c-13 -9 -49 -39 -80 -65 -65 -58 -211 -160
-217 -153 -10 10 9 26 65 56 31 17 97 64 145 105 49 41 94 75 100 74 7 0 1 -8
-13 -17z m-584 -8 c-22 -8 -45 -13 -50 -10 -6 2 5 8 24 14 52 15 71 13 26 -4z
m-470 -67 c-27 -34 -43 -44 -65 -44 l-29 0 23 19 c29 23 42 23 24 1 -13 -16
-12 -17 3 -4 10 7 16 17 13 21 -6 9 42 50 57 50 5 0 -7 -19 -26 -43z m261 16
c-20 -2 -52 -2 -70 0 -17 2 0 4 38 4 39 0 53 -2 32 -4z m141 1 c12 -4 22 -12
22 -19 0 -14 -148 -95 -173 -95 -8 0 -34 11 -58 24 -24 13 -58 27 -76 31 -17
3 -37 13 -44 21 -21 25 10 16 97 -27 l83 -42 63 31 c35 16 72 37 83 46 20 15
20 15 -2 16 -12 0 -25 5 -28 10 -7 11 0 12 33 4z m762 -69 c-14 -8 -37 -14
-52 -15 -19 0 -55 -23 -118 -76 -50 -41 -94 -82 -97 -90 -6 -17 -23 -19 -23
-1 0 6 16 23 34 37 18 14 64 51 101 82 62 52 109 75 160 77 17 0 17 -2 -5 -14z
m-625 -15 c-3 -5 -14 -10 -23 -10 -15 0 -15 2 -2 10 20 13 33 13 25 0z m965
-16 c0 -18 -39 -44 -56 -37 -19 7 -18 40 2 51 21 12 54 4 54 -14z m-1509 -5
c7 -13 9 -40 5 -68 -11 -81 -41 -201 -49 -201 -5 0 -6 8 -2 18 14 35 35 148
35 191 0 28 -6 51 -17 63 -15 16 -15 18 0 18 9 0 21 -10 28 -21z m640 -11
c-34 -34 -105 -135 -155 -220 -25 -45 -26 -48 -7 -48 25 0 66 49 131 161 29
49 57 92 63 96 12 8 -38 -83 -106 -189 -38 -61 -56 -80 -80 -87 -61 -16 -59
-7 36 150 50 82 122 169 140 169 6 0 -4 -15 -22 -32z m259 -44 c-82 -79 -92
-94 -63 -94 12 0 14 -3 7 -10 -13 -13 -44 -2 -44 15 0 14 157 165 172 165 4 0
-28 -34 -72 -76z m-343 14 c-33 -43 -206 -202 -213 -195 -3 3 16 25 43 49 26
23 68 63 93 86 l45 44 -39 -6 c-69 -9 -236 -126 -207 -144 9 -7 4 -11 -18 -14
-18 -3 -34 -1 -36 3 -6 9 136 114 195 144 25 12 61 25 81 29 20 3 44 15 54 26
29 32 30 15 2 -22z m-367 13 c16 -31 12 -37 -10 -13 -30 32 -44 27 -79 -25
-41 -62 -61 -131 -61 -213 0 -53 4 -71 21 -89 26 -27 17 -41 -11 -16 -56 51
-24 250 57 346 29 34 67 38 83 10z m935 -30 c-68 -31 -230 -168 -266 -226 -10
-16 -19 -24 -19 -17 0 25 41 72 123 140 105 88 157 122 182 122 13 0 6 -7 -20
-19z m-481 -117 c-14 -16 -53 -84 -86 -152 -46 -94 -59 -131 -56 -156 3 -25 0
-32 -9 -29 -24 10 -13 53 47 177 53 110 115 204 127 192 2 -2 -8 -17 -23 -32z
m-571 -36 c3 -21 2 -38 -4 -38 -5 0 -9 19 -9 42 0 49 5 47 13 -4z m84 -8 c10
24 10 24 15 -8 4 -29 2 -32 -16 -26 -28 9 -36 23 -35 59 1 29 1 28 13 -10 13
-39 13 -39 23 -15z m1551 -1 c34 -17 62 -34 62 -39 0 -5 -19 2 -42 15 -24 12
-61 28 -83 35 -22 7 -44 17 -50 22 -17 18 46 -1 113 -33z m-1497 -9 c6 0 7 -5
4 -10 -10 -16 -25 -1 -24 23 1 17 2 18 6 5 2 -10 9 -18 14 -18z m809 -10 c0
-11 -18 -63 -40 -116 -38 -92 -51 -137 -30 -104 11 17 13 10 4 -14 -6 -17 -34
-22 -34 -7 0 5 20 59 45 121 25 62 45 114 45 116 0 13 -30 0 -53 -23 -23 -25
-59 -93 -56 -109 0 -3 -2 -8 -5 -11 -16 -16 -3 46 15 77 47 78 109 118 109 70z
m525 10 c-3 -5 -17 -10 -31 -10 -13 0 -24 5 -24 10 0 6 14 10 31 10 17 0 28
-4 24 -10z m125 -6 c0 -2 -11 -4 -25 -4 -14 0 -25 4 -25 9 0 4 11 6 25 3 14
-2 25 -6 25 -8z"/>
<path d="M4060 554 c0 -9 5 -14 12 -12 18 6 21 28 4 28 -9 0 -16 -7 -16 -16z"/>
<path d="M4320 1067 c0 -14 5 -29 10 -32 7 -4 8 3 4 22 -9 38 -14 42 -14 10z"/>
<path d="M3550 1060 l-65 -7 67 -1 c37 -1 70 3 73 8 3 6 3 9 -2 8 -4 -1 -37
-4 -73 -8z"/>
<path d="M3645 1060 c-3 -5 -1 -10 4 -10 6 0 11 5 11 10 0 6 -2 10 -4 10 -3 0
-8 -4 -11 -10z"/>
<path d="M4360 1050 c0 -6 7 -10 15 -10 8 0 15 2 15 4 0 2 -7 6 -15 10 -8 3
-15 1 -15 -4z"/>
<path d="M2385 981 c38 -51 62 -71 81 -71 3 0 -12 17 -33 38 -21 21 -46 50
-56 65 -10 15 -22 27 -27 27 -6 0 10 -26 35 -59z"/>
<path d="M3363 1010 l-2 -30 34 26 c19 14 35 28 35 30 0 2 -15 4 -32 4 -30 0
-33 -3 -35 -30z"/>
<path d="M4205 1013 c-8 -33 -19 -41 -30 -23 -3 6 -12 10 -18 10 -7 -1 -1 -10
12 -20 24 -20 42 -26 39 -12 0 4 2 15 6 24 4 9 6 25 3 35 -3 13 -7 9 -12 -14z"/>
<path d="M2265 1018 c-11 -6 -30 -20 -42 -31 -19 -16 -25 -18 -38 -7 -11 9
-15 9 -15 1 0 -21 30 -23 56 -5 15 11 38 27 53 36 29 20 18 24 -14 6z"/>
<path d="M2626 995 c-40 -14 -98 -72 -91 -92 2 -6 -2 -14 -10 -16 -11 -5 -45
-122 -45 -156 0 -23 16 -9 54 46 32 45 40 67 41 104 1 26 9 58 18 73 18 27 37
35 37 14 0 -6 -3 -8 -7 -4 -4 4 -15 -8 -24 -26 -12 -24 -14 -38 -7 -54 12 -25
-2 -57 -57 -128 -19 -25 -35 -50 -35 -54 0 -5 -11 -14 -25 -20 -15 -7 -25 -20
-25 -33 0 -20 0 -20 29 3 16 13 39 40 52 61 13 20 27 37 30 37 4 0 24 30 44
67 33 60 35 68 20 79 -14 11 -13 16 16 58 18 25 31 48 28 50 -2 2 -21 -2 -43
-9z"/>
<path d="M4085 1000 c-12 -4 -26 -14 -33 -22 -17 -21 -44 -88 -35 -88 5 0 16
20 26 44 13 32 27 47 48 55 16 5 29 12 29 15 0 8 -10 7 -35 -4z"/>
<path d="M2495 919 c-11 -17 1 -21 15 -4 8 9 8 15 2 15 -6 0 -14 -5 -17 -11z"/>
<path d="M3775 890 c-10 -11 -14 -20 -9 -20 12 1 44 25 44 34 0 12 -17 6 -35
-14z"/>
<path d="M3830 881 c-8 -6 -19 -7 -25 -4 -5 4 -7 3 -3 -2 4 -4 -3 -16 -15 -26
-12 -10 -17 -18 -12 -18 6 0 26 13 45 29 34 29 39 39 10 21z"/>
<path d="M3337 737 c-3 -12 -9 -44 -13 -72 l-7 -50 44 40 c47 42 84 84 78 89
-2 2 -25 6 -50 9 -43 6 -47 4 -52 -16z"/>
<path d="M4566 457 c-15 -19 -26 -45 -25 -58 0 -20 4 -17 19 17 17 38 47 74
34 41 -3 -8 1 -17 10 -20 16 -7 28 16 20 38 -10 24 -31 17 -58 -18z"/>
<path d="M2398 323 c12 -2 32 -2 45 0 12 2 2 4 -23 4 -25 0 -35 -2 -22 -4z"/>
<path d="M2292 294 c-29 -14 -52 -31 -52 -36 0 -6 8 -4 18 5 10 10 40 24 65
33 26 9 47 18 47 20 0 10 -31 2 -78 -22z"/>
<path d="M3350 305 c-20 -24 -6 -28 15 -5 10 11 13 20 8 20 -6 0 -16 -7 -23
-15z"/>
<path d="M3291 247 c-13 -21 -12 -21 5 -5 10 10 16 20 13 22 -3 3 -11 -5 -18
-17z"/>
<path d="M4254 260 c-6 -6 -48 -12 -94 -14 -80 -4 -86 -6 -112 -35 -33 -36
-39 -38 -56 -11 -27 44 -67 14 -176 -135 l-44 -60 186 -3 c223 -3 234 -2 227
36 -3 15 -2 21 1 14 5 -10 11 -9 27 5 l21 18 -17 -27 c-20 -33 -23 -62 -3 -35
12 15 14 16 20 2 9 -24 29 -18 66 20 19 19 38 35 44 35 5 0 -5 -16 -24 -35
-34 -35 -34 -35 -9 -35 14 0 30 5 37 12 9 9 12 9 12 0 0 -8 20 -12 63 -12 57
1 60 2 43 15 -16 12 -17 18 -8 27 17 17 15 73 -4 89 -12 10 -20 10 -35 1 -27
-17 -29 -15 -16 17 15 41 -2 75 -52 101 -44 22 -81 26 -97 10z m26 -199 c-11
-22 -25 -43 -31 -47 -11 -7 1 21 29 64 23 35 24 26 2 -17z"/>
<path d="M2171 215 c-48 -38 -123 -116 -118 -122 2 -2 31 23 64 54 33 32 73
68 89 80 16 12 25 22 19 23 -5 0 -30 -16 -54 -35z"/>
<path d="M3344 228 l-19 -23 23 19 c12 11 22 21 22 23 0 8 -8 2 -26 -19z"/>
<path d="M3396 225 c-3 -8 -1 -15 4 -15 6 0 10 7 10 15 0 8 -2 15 -4 15 -2 0
-6 -7 -10 -15z"/>
<path d="M3413 190 c-22 -55 -23 -75 -3 -37 12 21 19 44 17 50 -3 7 -9 1 -14
-13z"/>
<path d="M3322 157 c-48 -49 -57 -73 -12 -30 28 26 65 73 57 73 -1 0 -22 -19
-45 -43z"/>
<path d="M2271 135 c-34 -30 -58 -55 -54 -55 10 1 131 110 122 110 -4 0 -34
-25 -68 -55z"/>
<path d="M2370 155 c-30 -32 -21 -32 16 0 16 14 24 25 18 25 -6 0 -21 -11 -34
-25z"/>
<path d="M3366 93 c-6 -14 -5 -15 5 -6 7 7 10 15 7 18 -3 3 -9 -2 -12 -12z"/>
<path d="M3305 30 c-16 -17 -24 -30 -18 -30 10 0 34 24 47 48 12 20 2 14 -29
-18z"/>
<path d="M3715 10 c-3 -5 -1 -10 4 -10 6 0 11 5 11 10 0 6 -2 10 -4 10 -3 0
-8 -4 -11 -10z"/>
</g>
</svg>
